<?xml version="1.0" encoding="UTF-8" standalone="no"?>
<svg
   xmlns:dc="http://purl.org/dc/elements/1.1/"
   xmlns:cc="http://creativecommons.org/ns#"
   xmlns:rdf="http://www.w3.org/1999/02/22-rdf-syntax-ns#"
   xmlns:svg="http://www.w3.org/2000/svg"
   xmlns="http://www.w3.org/2000/svg"
   xmlns:sodipodi="http://sodipodi.sourceforge.net/DTD/sodipodi-0.dtd"
   xmlns:inkscape="http://www.inkscape.org/namespaces/inkscape"
   viewBox="0 0 1024 768"
   version="1.1"
   id="svg20"
   sodipodi:docname="SelfieDoodle.svg"
   inkscape:version="0.92.5 (2060ec1f9f, 2020-04-08)">
  <metadata
     id="metadata26">
    <rdf:RDF>
      <cc:Work
         rdf:about="">
        <dc:format>image/svg+xml</dc:format>
        <dc:type
           rdf:resource="http://purl.org/dc/dcmitype/StillImage" />
      </cc:Work>
    </rdf:RDF>
  </metadata>
  <defs
     id="defs24" />
  <sodipodi:namedview
     pagecolor="#ffffff"
     bordercolor="#666666"
     borderopacity="1"
     objecttolerance="10"
     gridtolerance="10"
     guidetolerance="10"
     inkscape:pageopacity="0"
     inkscape:pageshadow="2"
     inkscape:window-width="1920"
     inkscape:window-height="1013"
     id="namedview22"
     showgrid="false"
     inkscape:zoom="0.86915208"
     inkscape:cx="535.92814"
     inkscape:cy="391.59311"
     inkscape:window-x="0"
     inkscape:window-y="0"
     inkscape:window-maximized="1"
     inkscape:current-layer="react-group-101" />
  <g
     style="fill-rule:evenodd;stroke:none;stroke-width:1"
     id="react-group-101">
    <rect
       height="768"
       width="1024"
       y="0"
       x="0"
       id="react-rect-103"
       style="fill:#ffffff" />
    <path
       style="fill:#9400d3;fill-opacity:1"
       inkscape:connector-curvature="0"
       id="react-path-104"
       d="m 530.19879,382.0021 0.15436,0.0184 c 2.23473,0.43237 5.93911,6.82576 7.45623,8.64286 4.89015,5.86036 9.78124,11.72073 14.67232,17.5811 1.95736,2.34545 4.78032,4.80832 6.17459,7.52278 1.07315,2.08827 1.44079,4.96766 2.08115,7.20595 7.95325,27.80251 15.73151,55.78487 21.52449,84.12971 1.2472,6.10078 2.43018,12.24443 3.12359,18.43747 0.34159,3.06111 1.24069,7.55912 -0.0921,10.51773 -1.50316,3.33414 -6.33933,4.71979 -9.48154,5.75321 -6.11222,2.01185 -12.51205,3.20927 -18.84393,4.28462 -15.25683,2.58959 -30.70447,4.09359 -46.12418,5.31058 -4.71052,0.3718 -9.55972,0.36528 -14.24045,0.99893 -2.23566,0.30192 -1.56552,-0.29819 -2.2701,1.20302 -0.98101,2.08826 -0.33041,6.44556 -0.44676,8.72206 -0.27457,5.35531 -0.54821,10.70969 -0.82278,16.065 v 0 l -2.24403,43.81998 c -0.75856,14.80887 -1.51619,29.61774 -2.27568,44.42661 -0.28667,5.61063 -0.57427,11.2222 -0.86095,16.83377 -0.15357,2.99867 0.30343,6.87142 -0.50074,9.77504 -0.60871,2.19636 0.39185,1.54873 -2.30081,1.67919 -6.23601,0.30098 -12.69727,-0.45381 -18.93515,-0.67745 -7.07462,-0.25253 -14.15017,-0.50599 -21.22665,-0.75852 -2.02065,-0.0727 -4.27865,0.5004 -5.09305,-0.94862 -0.99125,-1.76398 -0.23641,-6.61423 -0.30622,-8.58415 -0.19639,-5.4895 -0.39278,-10.97992 -0.58916,-16.46942 -0.53891,-15.06979 -1.07781,-30.13957 -1.61671,-45.20936 -0.7353,-20.55183 -1.47152,-41.10459 -2.20681,-61.65828 -7.86762,1.58414 -15.73617,3.16734 -23.60471,4.75054 -11.62598,2.33987 -23.25289,4.67973 -34.87981,7.01866 -5.33225,1.07348 -11.66507,3.52237 -17.17138,2.73216 -5.46907,-0.78461 -7.72986,-3.12074 -8.03701,-8.31205 -0.32948,-5.56497 -0.20104,-11.17374 -0.12658,-16.74338 0.12286,-9.11064 0.3844,-18.21942 0.72877,-27.32447 15.5342,-1.3987 31.06932,-2.79833 46.60352,-4.19796 8.27156,-0.74547 16.54405,-1.49002 24.81468,-2.23549 1.87732,-0.16867 6.505,0.19382 7.34268,-1.22165 1.30305,-2.20009 -0.14706,-9.43306 -0.18615,-11.92109 v 0 l -0.37044,-23.52161 v 0 l -1.35796,-86.54598 c 3.71927,0.12207 7.43854,0.23296 11.15781,0.33733 16.18107,0.4566 32.44217,1.11821 48.62789,0.62061 8.11706,-0.2488 15.80783,-2.43864 23.47069,-5.02264 4.07482,-1.37354 8.10775,-2.86915 12.10904,-4.44211 1.2593,-0.4948 4.96554,-2.83746 6.32443,-2.57468 z m -21.78472,80.53376 -8.26648,40.43159 28.28748,-1.87448 z" />
    <g
       style="fill:#000000"
       transform="translate(257.00031,20)"
       id="react-group-102">
      <path
         inkscape:connector-curvature="0"
         id="react-path-105"
         d="m 487.68868,114.63007 c -0.57794,4.49712 -0.16659,9.39993 -5.24332,10.58539 -4.69796,1.098 -9.85287,0.79 -14.64296,1.1743 -5.38292,0.43268 -10.75001,1.02355 -16.12177,1.5558 -6.77239,0.67089 -5.80637,-1.93173 -7.28704,-7.71573 -1.35318,-5.28152 -3.5123,-10.55282 -5.30847,-15.70408 -0.8348,-2.39418 -1.83153,-4.596677 -2.96972,-6.853144 -1.03117,-2.042452 -0.54072,-4.820931 -1.65192,-6.537707 -3.7915,-5.857509 -22.28365,10.160151 -24.00164,7.002958 3.12887,-2.436054 8.54436,-5.161495 9.50387,-9.330143 1.12888,-4.899093 -1.98416,-6.361842 -5.89572,-4.570626 -9.62578,4.409649 -20.7341,7.856228 -31.23191,9.463205 3.39504,-2.269494 34.10206,-20.156533 23.7969,-25.462255 -2.32292,-1.195695 -5.4248,1.055189 -7.51971,1.906599 -3.32431,1.352019 -6.79659,2.258328 -10.26701,3.144166 -3.65655,0.933293 -7.32241,1.831227 -10.99943,2.679845 -2.57885,0.595522 -7.1763,2.710552 -9.68907,2.188541 -2.55093,-0.530386 1.96834,-2.114101 2.70821,-2.487232 3.22659,-1.625587 6.40106,-3.372139 9.5504,-5.141023 5.5886,-3.138583 10.75002,-6.774054 15.00033,-11.626622 3.20704,-3.661525 8.50248,-11.657328 6.26984,-16.720189 -1.29362,-2.934803 -4.12933,-5.647216 -5.79521,-8.427556 -1.94507,-3.247452 -3.51509,-6.708919 -5.20423,-10.092224 2.82734,1.243151 6.00088,1.561382 8.88684,2.677054 2.88597,1.116603 5.81661,2.02012 8.81891,2.850128 6.02321,1.664668 12.02874,1.960567 17.99797,3.310726 6.75657,1.527884 13.79699,3.236285 20.66152,4.119332 5.97668,0.767664 11.35122,2.403486 16.47263,5.662104 10.45779,6.656811 17.71226,16.219579 21.38184,28.045328 2.14982,6.927587 2.67285,14.155726 2.92598,21.363394 0.2671,7.599409 0.82736,15.373751 -0.14611,22.939661 m -58.69188,0.55924 c -7.30286,5.3234 -15.81651,9.48367 -23.65357,14.01242 -4.48484,2.59052 -9.0646,5.01169 -13.63878,7.4403 -3.24613,1.72329 -7.19026,4.89444 -10.76305,5.77841 -2.26057,0.55923 -2.09212,0.60204 -3.52254,-1.45902 -1.36713,-1.96802 -2.56116,-4.08677 -3.84082,-6.1134 -2.35921,-3.7369 -4.74076,-7.45984 -7.12232,-11.18277 -5.33917,-8.34567 -10.66812,-16.68949 -16.27811,-24.857432 -5.62769,-8.195861 -11.02643,-16.542463 -16.47822,-24.854637 -2.53418,-3.864374 -5.05253,-7.743637 -7.7412,-11.501934 -2.05396,-2.869668 -7.31776,-7.246749 -4.81801,-10.625402 2.32199,-3.138583 7.61184,-5.745849 10.74071,-8.121421 3.82314,-2.900374 7.66954,-5.770973 11.48244,-8.686235 8.19723,-6.266931 16.17948,-12.806498 24.36926,-19.081803 6.95014,12.190505 15.12689,23.61893 23.37438,34.952444 -7.45829,4.759517 -14.99289,9.283617 -22.85229,13.358285 -5.8045,3.009244 -14.68483,7.075537 -18.35162,12.784167 -3.61188,5.621162 -0.0642,12.10676 6.37407,12.210046 3.85013,0.06141 7.68816,-0.958417 11.4629,-1.540911 2.72496,-0.420587 7.70026,-2.384877 10.15719,-1.00029 -4.41597,2.81756 -20.43723,11.029239 -11.80073,18.228533 6.17305,5.14661 16.60944,-2.36347 23.27759,-0.81791 -2.03255,3.90066 -4.14514,10.12293 1.4965,12.24447 4.69516,1.7661 10.84029,-1.52509 15.06547,-3.27071 3.05349,-1.26083 6.08743,-2.56446 9.08973,-3.94068 2.38713,-1.0952 5.24611,-3.31351 7.79704,-3.78621 2.97624,-0.55179 9.03668,7.74364 6.17398,9.83169 M 293.23536,402.68835 c 4.17865,-0.76208 6.32381,-2.49003 7.63976,2.58307 1.17914,4.54457 2.34712,8.92165 3.86595,13.38155 -6.52669,0.56388 -12.28374,3.68013 -17.04312,8.06373 -3.38945,3.12369 -10.1302,10.57887 -8.45874,15.80923 4.05953,12.71065 24.56469,-15.80365 27.00115,-18.85104 2.98276,4.3594 4.08,10.0671 5.56254,15.05273 1.05536,3.548 4.97157,10.34997 -0.20568,11.21255 -7.2675,1.21151 -20.90255,3.91741 -20.04076,14.21062 1.01813,12.14957 16.47355,12.08071 25.14448,12.62691 4.88874,0.30707 4.91108,4.22448 5.60721,8.60808 0.31177,1.96056 1.28431,4.6097 -0.38064,6.04547 -1.47788,1.27385 -6.0046,1.30921 -7.92826,1.72142 -5.60814,1.20407 -11.21256,2.43141 -16.81977,3.63455 -6.36569,1.36597 -9.73188,-0.54714 -15.6825,-2.2909 -2.20379,-0.64577 -4.41689,-0.37313 -4.57883,-2.83989 -0.0996,-1.51393 1.38203,-3.85414 1.8669,-5.35132 1.92088,-5.92357 3.55604,-12.02115 4.10792,-18.24156 0.80316,-9.03796 -0.20009,-22.58886 -11.32889,-24.35216 -5.2945,-0.83932 -6.31264,-1.11289 -8.70257,-6.08177 -2.58537,-5.37271 -6.68956,-10.34904 -5.69748,-16.53874 0.71754,-4.48502 -0.49325,-12.97212 2.36945,-16.69227 1.32339,-1.71957 3.90318,-2.74591 5.66398,-4.00767 2.24381,-1.60977 4.4048,-3.33306 6.49598,-5.13544 1.75895,-1.51486 3.90318,-4.47665 5.89758,-5.57092 2.43646,-1.33806 2.51091,-0.42617 4.26054,1.66374 2.58258,3.08554 6.68864,12.19702 11.3838,11.34003 m 11.81004,20.0793 c -1.44811,2.9227 -4.79475,5.63977 -6.92595,8.07955 -2.14424,2.45373 -4.17307,5.04704 -6.56486,7.27094 -2.63189,2.44815 -11.98034,8.36056 -9.9208,0.40197 1.60259,-6.19062 7.59975,-11.20417 12.87843,-14.29344 1.02186,-0.59924 12.9836,-6.40371 10.53318,-1.45902 m 10.22699,29.47085 c 0.92693,4.14353 1.42576,8.41453 2.21682,12.58784 0.40577,2.13364 2.64958,7.28769 1.73474,9.33944 -1.54954,3.47822 -15.49729,-0.63925 -18.38885,-1.83588 -6.8822,-2.84919 -10.04178,-10.16294 -3.6947,-15.37189 2.40668,-1.97359 17.20505,-8.86117 18.13199,-4.71951 m 9.1437,49.76325 c 0.7771,3.95556 3.04976,7.62267 -0.7073,10.6133 -3.11956,2.48258 -8.23073,4.17703 -12.07434,5.061 -5.2396,1.20407 -6.92409,-1.73166 -9.69745,-5.50764 -2.98182,-4.06071 -6.15629,-7.9837 -9.44989,-11.79597 10.34332,-2.31509 20.68571,-4.63111 31.02997,-6.9462 -0.007,2.88177 0.34341,5.75144 0.89901,8.57551 m -24.78339,18.35787 c -5.39409,-0.27915 -11.19767,1.34458 -16.66807,1.77168 -6.83195,0.53318 -13.64436,1.30921 -20.4819,1.76795 1.7515,-5.58953 4.89805,-10.57422 7.35964,-15.85389 2.46903,-5.29828 4.20284,-5.87147 9.88357,-6.27996 5.2638,-0.37871 8.97619,-2.1904 12.86075,2.27508 4.04185,4.64413 7.70212,9.69118 11.39217,14.61446 -1.25545,0.84024 -2.75567,1.7875 -4.34616,1.70468 m -38.55712,1.1408 c -1.33084,0.96958 -5.43504,-1.78657 -6.81799,-2.32067 -2.69053,-1.03938 -3.28708,-1.37436 -4.69145,-3.99837 -1.20613,-2.25647 -3.12514,-4.82093 -3.50299,-7.39656 -0.49883,-3.39447 1.00325,-7.8646 1.55048,-11.23767 1.45647,3.51171 6.23726,3.91927 9.46757,4.49339 2.44297,0.43548 9.68162,-0.25775 11.52339,1.48229 2.03535,1.92242 -1.71147,7.28304 -2.68773,9.30223 -1.16519,2.41 -2.60398,8.04605 -4.84128,9.67536 m -2.6077,2.78499 c -1.60166,0.25961 -6.21121,1.85263 -6.11907,-1.07287 0.1033,-3.34143 6.44573,0.26333 6.11907,1.07287 m -8.12278,-0.17494 c -0.29222,2.81384 -6.34708,2.58029 -6.48574,0.10515 -0.23546,-4.18261 6.95107,-4.59854 6.48574,-0.10515 m -6.92315,-75.87964 c -1.54769,4.40872 -10.97617,5.98592 -14.59736,7.34353 -3.30662,1.23942 -13.18554,6.96201 -16.59547,4.88606 11.54201,-7.93253 23.36973,-15.70594 33.14907,-25.83446 0.40018,2.50212 -0.2094,4.59203 -0.94741,6.96016 -0.66542,2.13736 -0.32294,4.69159 -1.00883,6.64471 m -2.87015,16.07722 c -1.66122,10.7994 -3.2908,21.74117 -5.53834,32.43264 -4.28288,-1.30828 -7.81472,-3.96115 -12.31445,-4.88513 -4.10606,-0.84304 -8.34799,-0.86351 -12.48756,-0.24752 -8.82262,1.31201 -16.6876,5.67606 -24.38507,9.92846 -0.71102,-7.40587 -2.18332,-15.33188 -2.00929,-22.7638 0.14426,-6.17388 10.70907,-8.00139 15.50103,-10.55189 2.89899,-1.54278 5.52065,-3.71271 8.82355,-4.25054 3.39876,-0.55457 6.6784,-0.53783 10.03621,-1.57348 7.93757,-2.44908 15.40795,-6.33206 23.18452,-9.22592 0.63564,3.70712 -0.24755,7.48402 -0.8106,11.13718 m -7.41733,45.70532 c -0.35272,2.45466 0.0921,6.83547 -1.77849,8.70671 -1.76173,1.76237 -5.52438,1.82006 -7.8473,2.29741 -7.07671,1.45623 -14.14692,2.92642 -21.21339,4.42825 -3.16144,0.67183 -6.32382,1.31387 -9.49829,1.91405 -1.51418,0.28566 -5.31219,1.73818 -6.58719,0.53317 -1.20985,-1.14451 -0.30898,-4.79952 -0.24383,-6.33299 0.13029,-3.06321 0.30339,-6.13573 0.11075,-9.19987 -0.36854,-5.87798 -0.041,-8.12887 5.42945,-11.16975 5.81195,-3.23163 11.81469,-5.44344 18.35628,-6.64099 6.62348,-1.21245 12.93334,-0.549 19.23761,1.99313 1.75429,0.70719 4.38525,1.57907 5.20237,3.47078 1.11027,2.57376 -0.79385,7.3919 -1.16797,10.0001 m -7.96736,94.74557 c -2.59374,1.62651 -8.23817,1.34923 -11.21814,1.67955 -4.81149,0.53132 -9.6537,0.22798 -14.43356,-0.51456 -3.59792,-0.5583 -8.96781,-1.33155 -11.72534,-3.85787 -3.91807,-3.58894 0.60306,-3.75364 3.60164,-3.50147 8.71746,0.73323 17.54474,0.22146 26.25383,-0.40849 1.69566,-0.12283 6.25309,-1.61163 7.88825,-0.91469 2.09026,0.89049 1.44996,6.37859 -0.36668,7.51753 m -4.94272,58.00377 c -16.24182,-1.57814 -25.65821,-15.02761 -31.54834,-28.77671 -3.16144,-7.38167 -2.02138,-15.12717 -2.33315,-22.93315 -0.0568,-1.42553 -0.95207,-4.96423 0.51372,-6.02872 1.37737,-1.00122 6.94921,2.0927 8.45595,2.46211 7.72538,1.89357 16.26881,2.07502 24.01095,0.23542 3.35408,-0.79651 5.23215,-2.27787 6.29775,1.04588 0.85807,2.67705 -0.55002,7.60965 -0.70357,10.41511 -0.26524,4.85257 0.49511,44.08346 -4.69331,43.58006 m -32.44549,0.0149 c -0.0623,-2.35603 -1.2508,-26.16292 -0.0977,-26.23457 3.42668,7.39191 6.94642,14.00406 13.18462,19.44191 3.18657,2.77941 6.7696,5.28339 10.75467,6.77498 1.49743,0.56017 9.98129,0.98541 10.3973,2.84269 0.72684,3.25117 -5.06464,1.93916 -6.78263,1.6749 -1.3783,-0.21308 -2.61887,-0.80023 -3.97111,-1.04588 -2.57606,-0.46712 -5.01066,0.16097 -7.59789,0.21308 -3.93109,0.08 -7.79146,-0.33219 -11.72441,0.008 -3.59513,0.30985 -4.06697,-0.10329 -4.16283,-3.67549 m 2.39737,-106.78254 c 13.90402,-4.49432 25.5242,4.01698 32.86243,15.15695 4.18423,6.35254 5.11954,10.79475 4.38805,18.31693 -0.26245,2.69287 0.22149,4.51573 -2.25405,5.61279 -2.45042,1.08682 -8.01761,0.28101 -10.66906,0.40477 -7.62487,0.35638 -15.22089,0.83 -22.84576,0.37778 -4.95296,-0.29311 -5.65281,-1.13242 -5.56719,-5.94032 0.10237,-5.78773 -0.37878,-11.54939 -0.70637,-17.34642 -0.35458,-6.27158 -2.50812,-14.22365 4.79195,-16.58248 m -4.54998,-8.33636 c 0.008,-4.2524 -0.24662,-8.61552 0.013,-12.8614 0.25872,-4.20959 2.05024,-4.00116 6.02414,-4.71951 8.60579,-1.5558 17.2004,-3.29676 25.68986,-5.40621 3.35781,-0.83373 7.15209,-2.4342 10.65043,-2.4473 3.67051,-0.0139 3.47601,1.87318 3.23124,5.12342 -0.54443,7.19929 -1.86317,14.29251 -2.26428,21.45365 -0.43276,7.72875 -0.65984,15.55706 -0.6254,23.29419 0.0121,2.61192 0.6468,4.54643 -1.57933,2.102 -2.22985,-2.44815 -3.32058,-6.34974 -5.31126,-9.10124 -4.07721,-5.63419 -10.13671,-10.16666 -16.86164,-12.07512 -3.71798,-1.05519 -7.6286,-1.2385 -11.41916,-0.47456 -1.15029,0.2317 -6.91106,2.98133 -7.64442,2.43792 -0.49604,-0.36755 0.0959,-7.1537 0.0968,-7.32584 m 50.86599,147.38499 c 5.51507,3.94905 11.62204,7.13974 17.80439,9.90985 3.4788,1.55858 17.2488,4.83861 17.68807,8.3466 0.23452,1.87124 -2.04745,3.96859 -3.54208,4.19005 -1.89575,0.28101 -5.01996,-0.95749 -6.95108,-1.19198 -7.02273,-0.85234 -14.03151,-0.85792 -20.88394,-2.8129 -13.68066,-3.90439 -27.8648,-5.00424 -41.68785,-8.40802 -3.28894,-0.80954 -6.58532,-1.56882 -9.89102,-2.30206 -3.14003,-0.69695 -4.54719,-0.57784 -4.65794,-3.93323 -0.24476,-7.36492 1.86783,-14.91036 1.88458,-22.36648 11.18278,1.27665 22.40371,1.2599 33.61719,2.31044 4.80499,0.44943 4.69331,1.36039 6.79845,5.55882 2.18612,4.35568 5.90409,7.89438 9.82123,10.69891 M 181.96788,455.7694 c -0.14146,-2.72637 -0.25221,-5.46019 -0.49883,-8.17911 -0.16566,-1.82658 -1.83433,-6.93224 -0.89343,-8.35498 1.11771,-1.68886 2.24381,-0.65786 4.24379,-0.70532 2.63655,-0.0623 4.84407,-1.12218 7.01808,-2.50956 4.11723,-2.62588 7.17816,-6.08269 9.85008,-10.11735 2.35084,-3.5508 1.91343,-8.4015 1.88458,-12.65297 -0.0744,-10.99388 0.72684,-21.71698 0.0558,-32.75925 -0.30805,-5.07216 4.02137,-1.9615 7.51784,-1.30456 5.71889,1.0738 11.93475,0.33033 17.7467,0.34429 -0.21591,1.35202 -12.10133,4.70833 -14.02128,5.98591 -4.91573,3.26886 -7.78215,8.49921 -7.33357,14.46186 0.9018,11.99604 14.11341,14.00127 23.76712,14.02453 -8.00924,7.08205 -15.87515,13.83377 -22.17012,22.57025 -4.64118,6.44187 -12.81607,19.14229 -5.22843,26.26901 -6.70724,3.80947 -13.35492,8.04698 -20.94071,9.88006 -0.33969,-5.65 -0.70357,-11.30001 -0.99766,-16.95281 m -3.04511,-218.97874 c 2.73055,1.75399 3.87898,-0.72579 5.95713,-2.00989 2.92692,-1.80982 3.89573,-1.6321 4.26707,-5.67327 0.68682,-7.49519 -2.46625,-14.27948 -6.42526,-20.41335 -1.79896,-2.78778 -3.5942,-6.10781 -6.13396,-8.28705 -2.31547,-1.98662 -4.65608,-1.3027 -6.80124,-3.35632 -0.84225,-0.80767 -0.6617,-1.94754 -2.05396,-1.91497 -0.9167,0.0214 -3.14469,2.86129 -3.90224,3.48845 -2.39179,1.98011 -5.31778,3.48752 -8.45223,1.85449 -4.56394,-2.3765 -3.09816,-11.00225 0.44671,-13.79655 2.72962,-2.15132 5.95528,-1.81913 9.06274,-2.16621 2.33037,-0.25961 2.81524,-0.15818 1.85666,-2.825 -0.67193,-1.86752 -2.22055,-3.32469 -2.98555,-5.15126 -1.47043,-3.50706 -1.15029,-7.76969 -1.785,-11.48147 -0.57049,-3.32561 -1.90412,-6.92293 -1.85573,-10.30065 0.0633,-4.30078 1.46858,-5.41831 5.19493,-6.62425 3.61002,-1.16777 6.59929,-3.74247 9.67418,-5.90589 3.48066,-2.44908 7.29263,-4.06629 10.86914,-6.30229 2.42809,-1.51858 3.99531,-4.58831 6.66537,-3.1544 3.17261,1.70375 6.52763,6.63634 9.2256,9.15707 -3.94785,2.50584 -4.86547,3.60197 -4.32197,8.50758 0.49976,4.49711 1.41553,8.50478 4.85338,11.63778 1.3206,1.20407 3.78405,2.16807 4.80777,3.55638 1.19403,1.61722 0.41786,0.19169 0.2671,2.01733 -0.08,0.98447 -0.859,1.62838 -0.68962,2.76638 0.75756,5.05449 6.56392,2.0713 8.95664,0.31544 8.54902,-6.27344 -7.41361,-11.25535 -11.20511,-13.54066 -2.61793,-1.57906 -3.91248,-6.61866 0.23546,-5.27967 2.7594,0.89049 8.99294,8.44058 9.62578,1.55859 6.84219,3.97418 11.06458,12.41848 16.80208,17.7577 4.13677,3.85042 9.69466,8.12142 6.41037,14.27111 -4.18423,7.83855 -12.4829,11.39679 -20.05845,14.77916 -7.34847,3.28002 -5.82219,12.56271 -1.89482,18.24435 2.27081,3.28467 5.24612,5.20895 8.82542,6.80476 3.65655,1.63117 4.41597,3.54708 5.21447,7.3305 0.88692,4.19656 -0.0549,5.88821 -3.68912,8.05628 -3.54766,2.11783 -7.25726,4.16865 -11.04504,5.82588 -8.19071,3.58429 -16.68761,3.8104 -25.39949,5.03215 -3.05348,0.42803 -5.98133,1.31945 -7.6472,-1.70747 -1.87342,-3.40657 -2.01115,-9.27338 -2.87201,-13.07076 m -1.31688,-16.30239 c -2.05024,-1.08032 -6.99947,2.50863 -9.59135,2.66588 -4.19261,0.25403 -6.94549,0.15819 -10.66719,2.38209 -7.03577,4.20401 -12.87378,9.61674 -18.51542,15.48634 -6.35453,6.61122 -12.67276,13.25686 -19.00588,19.88762 -2.87014,3.00366 -5.75518,5.9915 -8.67093,8.94957 -2.29779,2.33183 -4.54439,5.61092 -7.38848,7.27466 0.14797,-1.97638 1.35969,-3.37493 1.78965,-5.20709 0.25035,-1.07101 -0.18706,-1.98011 -0.0251,-3.00552 0.053,-0.33312 0.94741,-1.49066 1.08329,-1.87031 0.36295,-1.00215 0.80688,-1.9922 1.23777,-3.0325 0.40205,-0.97145 0.34341,-1.97825 0.75104,-2.9925 0.41973,-1.04588 1.56816,-1.73817 1.96648,-2.76824 1.16797,-3.01483 -0.765,-4.41244 -3.85664,-4.34172 1.20985,-6.03245 1.73847,-8.98307 8.04553,-11.1102 6.026,-2.03221 11.91241,-4.3138 17.44795,-7.48961 4.9148,-2.81942 9.01528,-6.88292 13.74022,-10.02522 4.22984,-2.81384 9.49549,-5.76167 9.45175,-11.53171 2.39831,1.62651 4.64584,2.99528 7.38942,1.37621 2.31547,-1.36784 2.62259,-2.46862 5.29916,-2.72637 2.18518,-0.20937 3.53929,-0.2652 5.48901,0.69601 2.29501,1.12963 2.60864,1.91591 3.94506,-1.41157 1.51883,1.27851 5.35872,6.60377 5.23029,8.71136 -0.0698,1.16127 -0.24569,1.68514 -1.68449,1.99127 -2.04093,0.43362 -1.96182,-1.11846 -3.46111,-1.90845 m -9.56064,315.15542 c -0.99766,1.52881 -5.2033,1.24687 -6.8273,1.2264 -4.95109,-0.0642 -6.68212,-4.21983 -8.85427,-8.23495 -3.42482,-6.3302 -8.54343,-19.48005 -2.92505,-26.12384 4.43458,-5.24338 13.072,1.36319 16.09757,5.3234 2.61235,3.42146 1.83619,8.55318 2.07909,12.65855 0.20474,3.46054 2.40109,12.13282 0.42996,15.15044 m -13.52617,2.29275 c -1.9795,1.97918 -8.40383,1.56045 -11.02642,1.98569 -4.68121,0.75743 -9.33635,1.66839 -13.87796,3.05112 -3.38107,1.02913 -6.72306,3.79831 -7.61463,-0.91468 -0.74825,-3.96208 -0.37599,-8.71509 -0.30433,-12.71438 0.0772,-4.31474 0.52862,-8.57458 0.90367,-12.86977 0.25407,-2.90503 -0.38157,-8.2489 1.98975,-10.47839 2.04372,-1.92148 7.0125,-2.10665 9.6658,-2.74312 4.3564,-1.04495 8.90825,-2.41744 13.43682,-1.9494 -2.64213,7.17138 -2.86642,14.6917 -0.0335,21.83795 0.80781,2.03966 8.08369,13.5723 6.8608,14.79498 m -33.29332,-28.5692 c -1.10376,10.78731 -2.21403,21.64255 -1.15122,32.48382 0.0642,0.6467 0.83666,3.60849 0.50069,4.07188 -0.34713,0.48014 -3.09629,0.72858 -3.72076,0.8756 -2.47927,0.58808 -4.95482,1.21152 -7.44991,1.73353 -4.85617,1.01518 -5.48995,-2.05269 -6.44294,-6.55353 -2.04093,-9.64279 1.91622,-20.09791 4.31359,-29.35919 1.16798,-4.51015 2.03349,-5.02937 6.46807,-5.40343 3.08606,-0.25961 7.95153,-2.43233 7.48248,2.15132 m -18.75273,40.24514 c -1.85573,1.68793 -3.710535,-6.27624 -3.87433,-7.08763 -0.648668,-3.22326 -0.287573,-6.49211 -0.278267,-9.76562 0.01582,-5.11311 -0.375054,-10.20295 -0.3825,-15.29187 -0.0047,-2.75242 -2.066989,-8.3801 1.19031,-9.83634 0.955787,-0.4271 4.752867,-0.24937 5.614657,0.31265 1.78965,1.16871 1.08421,1.92614 0.55374,3.95929 -1.18752,4.56318 -2.21403,9.14869 -3.248,13.75003 -1.01441,4.51107 -2.01487,8.85186 -1.53186,13.51088 0.15915,1.54092 3.13911,9.37295 1.95625,10.44861 m 59.18419,-50.26199 c 4.52392,-1.27479 4.7659,2.19133 4.75845,5.50857 -0.68962,-0.52852 -7.11859,-4.84326 -4.75845,-5.50857 m -60.51317,-243.4984 c -1.10842,1.82658 -8.129292,2.32533 -10.135788,2.80639 -3.946916,0.94539 -7.895694,1.88427 -11.832373,2.86874 -7.375456,1.84426 -14.569434,3.92486 -22.130091,4.88979 4.151661,-6.64751 5.443413,-12.38777 4.670967,-20.6832 -0.974397,-10.47373 -2.213102,-20.84138 -4.624434,-31.09365 -2.376898,-10.1099 -5.12885,-20.15188 -7.779361,-30.19386 -1.301989,-4.93352 -2.710073,-9.77306 -4.442026,-14.57352 -1.38854,-3.84762 -3.55697,-8.69089 -1.200547,-12.63528 5.980401,4.36312 10.777007,9.06402 14.187865,15.69198 3.65469,7.10531 6.844981,14.39952 11.085985,21.19683 1.939489,3.10788 4.203778,5.94219 6.278212,8.9505 1.234051,1.79029 2.133066,4.37243 3.704945,5.88264 1.811989,1.74003 3.744033,2.56074 4.779854,-0.37593 1.111204,-3.15161 -2.433668,-9.38783 -3.479726,-12.34776 -2.526734,-7.14532 -5.032062,-14.27576 -6.980858,-21.60532 -1.576533,-5.92451 -4.182372,-13.08751 -3.260091,-19.33862 0.912974,-6.18877 5.112098,-1.75958 7.236788,1.11753 4.380602,5.93195 7.003194,12.84651 9.880785,19.57125 2.644927,6.17853 5.730055,12.06861 8.656971,18.10384 1.018138,2.10014 2.360146,7.52497 5.027413,8.14934 3.87711,0.9091 3.54859,-4.55109 3.17819,-6.76661 -2.45694,-14.68611 -8.871023,-28.74879 -10.201862,-43.68986 -0.06422,-0.71369 -0.99115,-6.26507 -0.245694,-6.72846 1.44531,-0.89886 3.395037,4.73253 4.018577,6.11247 3.243339,7.17696 5.502039,14.74287 7.574619,22.3246 1.76266,6.44745 3.35688,12.94421 5.33545,19.33025 1.08701,3.51078 2.33316,6.96294 3.56163,10.42534 1.1112,3.13672 2.23916,8.49734 5.13722,10.56399 4.11165,2.93201 18.82533,-4.03931 20.31624,2.19319 1.06095,4.43012 -12.58248,7.99767 -15.48799,9.34317 -3.825,1.77075 -7.57741,3.70991 -11.40427,5.48252 -2.89713,1.34085 -7.06089,1.89078 -9.15673,4.4143 -2.22055,2.67333 -2.57606,6.42698 -2.64214,9.74329 -0.0512,2.50956 1.68822,8.70391 0.37227,10.87012 m -9.298197,48.374 c -0.194507,1.39204 -1.301058,3.23536 -1.79896,4.56039 -1.013485,2.69939 -1.875273,5.92451 -3.285219,8.44617 -1.212646,2.17179 -3.002299,4.11375 -4.173996,6.31811 -1.111205,2.09177 -1.259179,4.50363 -2.557445,6.59819 -1.485329,2.39325 -3.940402,4.11468 -5.415493,6.49304 -0.726843,1.17336 -1.477883,2.51329 -2.505329,3.76295 -3.637937,4.4264 -7.249817,8.60249 -10.175803,13.34433 -0.748248,1.2143 -4.402938,6.51351 -5.857554,6.80011 -3.040456,0.59738 0.498832,-3.7248 1.093522,-4.61901 4.308011,-6.46513 8.133941,-13.27175 12.292116,-19.83738 4.027884,-6.35719 8.149763,-12.66506 12.025949,-19.11809 3.161442,-5.26106 5.347555,-12.81394 10.485712,-16.52013 0.01954,1.2599 -0.02234,2.51701 -0.1275,3.77132 m 140.474297,-59.4187 c 2.50254,10.28763 5.49553,20.25703 8.31635,30.45254 2.61794,9.46041 6.10139,19.58427 7.18653,29.33686 1.07491,9.66141 3.54488,19.43633 6.86639,28.60643 1.53558,4.24308 3.11491,8.50199 4.78172,12.69576 0.91576,2.30393 1.93949,4.55574 2.97903,6.80569 0.80688,1.74842 2.93901,4.579 3.02091,6.43163 0.0652,1.48322 0.58073,0.8905 -0.88319,2.00524 -1.51604,1.15475 -4.14236,0.73509 -5.90781,0.93887 -4.60489,0.53225 -9.09531,2.26484 -13.5848,3.38703 -8.6579,2.16342 -18.97796,3.88112 -27.84991,2.37557 -3.73193,-0.63367 -7.60812,-1.18267 -11.29818,-2.00802 -4.54067,-1.01611 -5.47412,-2.89479 -6.40571,-7.35748 -2.03814,-9.75631 -3.79335,-19.4875 -5.47598,-29.30895 -2.00091,-11.68245 -4.16655,-23.35188 -5.71051,-35.10691 -1.55978,-11.89181 -2.6803,-23.79572 -5.1242,-35.5582 9.85845,1.64885 19.14268,3.51078 29.02998,0.80954 8.75562,-2.39232 15.07664,-7.0681 20.05938,-14.5056 m 38.59155,127.36618 c 2.2038,4.54271 -3.10839,8.62668 -5.68259,12.12537 -3.39504,4.61157 -6.56578,9.4297 -10.51456,13.60114 -1.18473,-4.73997 -2.22427,-10.07361 -5.38478,-13.96683 -4.03719,-4.97167 -8.74911,-2.94039 -13.69462,-5.29176 5.18655,-2.52353 11.80911,-1.56046 17.31115,-3.81041 5.42759,-2.21925 10.9073,-3.96115 15.95705,-6.84384 0.671,1.39482 1.33363,2.79336 2.00835,4.18633 m -19.23482,105.98231 c -3.315,0.18423 -1.09724,-6.80663 -0.88226,-8.54387 0.5919,-4.77534 1.19031,-9.54974 1.70869,-14.33346 2.7352,7.21233 5.46947,14.42465 8.20281,21.63604 -3.00509,0.42896 -5.99064,1.07286 -9.02924,1.24129 m -5.39222,34.57373 c 0.4523,1.00494 2.56117,4.35474 0.89622,4.9726 -2.28197,0.84582 -2.55651,-4.70183 -0.89622,-4.9726 m -3.95529,-77.69692 c -10.56017,8.43128 -21.04681,16.88396 -32.47249,24.14281 -2.50346,1.59022 -5.02461,2.25553 -6.68397,-0.89794 -1.30385,-2.47978 0.0735,-5.27315 0.91018,-7.70083 2.13306,-6.18877 5.84918,-11.56893 9.96733,-16.60574 8.22515,-10.05872 18.01473,-18.65005 30.50601,-22.61585 2.04372,-0.64949 5.19865,-2.60726 5.91432,0.0968 0.42159,1.59023 -1.36248,5.56161 -1.7245,7.05414 -1.49185,6.16364 -1.16612,12.33659 -6.41688,16.52664 m 30.39804,61.4885 c 0.23267,7.15928 -19.33812,1.38459 -21.77644,0.10515 2.55838,-0.85792 21.67128,-3.32375 21.77644,-0.10515 m 7.2675,0.0447 c 1.16239,0.30985 5.6221,0.70346 3.95623,2.22762 -1.49092,1.36411 -8.24283,0.81698 -10.03248,0.98447 1.2024,-3.94998 2.11538,-4.26635 6.07625,-3.21209 m -3.62584,-9.58976 c -0.4374,1.59302 -0.61516,4.02256 -2.04279,5.11404 -1.77848,1.3604 -5.55788,0.53411 -7.57089,0.54528 -3.41924,0.0177 -6.83475,0.19261 -10.23723,0.53224 -1.30199,0.12934 -6.57509,1.71864 -7.79518,0.63461 -0.89622,-0.79651 -0.56212,-4.53248 0.0903,-5.37179 1.34015,-1.72608 4.42621,-1.1287 6.36011,-1.19756 7.07672,-0.2531 14.11528,-0.27357 21.19571,-0.25682 m -4.54346,-26.46254 c -0.9986,-1.48415 -1.17728,-1.46833 -1.60352,-3.71084 -0.4551,-2.39977 -1.61376,-4.45245 -2.295,-6.77126 -1.49836,-5.10288 3.28987,-4.64972 6.80217,-2.77848 9.11113,4.85442 6.91199,21.81561 4.65887,29.75652 -3.27592,-2.40814 -4.48484,-3.50055 -5.61187,-7.38633 -0.4281,-1.4767 -0.90832,-2.92736 -1.3541,-4.39569 -0.32759,-1.08124 -0.0996,-3.97417 -0.59655,-4.71392 m 0.7892,-82.55227 c 2.54348,-0.30707 4.87105,7.58545 4.14421,9.29385 -1.48719,3.49404 -7.17071,6.61494 -10.06505,8.84535 -1.92739,1.48415 -3.84176,3.18697 -5.9013,4.4813 -1.9125,1.20128 -3.01254,0.52759 -4.79102,1.10451 -2.57327,0.8328 -3.19681,3.55544 -5.83057,4.72602 -3.70587,1.64698 -8.19722,2.10758 -12.06783,3.59453 -4.69609,1.80424 -9.00038,1.85355 -13.92449,0.99842 -7.08136,-1.22919 -15.38189,-4.74277 -14.74346,-13.34712 1.12516,-15.18207 31.27565,-22.96106 39.49801,-10.0885 2.14051,3.35074 2.10701,7.25606 3.49648,10.85524 1.50487,3.89508 2.96414,2.3644 5.2275,-0.50434 2.96135,-3.75364 5.71237,-7.70827 8.55739,-11.55125 0.92042,-1.24222 4.56394,-8.18469 6.40013,-8.40801 M 87.841236,525.77793 c -0.144252,2.58215 0.01024,5.20058 -0.887847,7.66455 -0.904598,2.48444 -2.738923,4.49339 -3.795219,6.90804 -2.141441,4.89351 -2.12562,10.8143 -2.039999,16.05768 0.19916,12.19981 3.087919,24.04882 4.616058,36.10254 -5.08604,-0.0121 -10.343321,0.0456 -15.273011,-1.40878 -4.402938,-1.29898 -5.105584,-4.51666 -6.350803,-8.57178 -3.496478,-11.38935 -7.273084,-22.72937 -8.401971,-34.65655 -0.536989,-5.6835 -0.763138,-11.41353 -1.02,-17.11565 -0.224288,-5.00238 0.899015,-7.18441 5.414562,-9.66047 9.814708,-5.38389 19.98865,-9.86611 29.702847,-15.50588 -0.993011,6.69123 -1.58677,13.43458 -1.964617,20.1863 M 506.83695,126.05943 c -2.38993,-0.43827 -4.80219,-0.71277 -7.21352,-1.00029 -1.25825,-0.15074 -5.17911,0.0586 -6.12094,-0.76115 -1.12051,-0.9761 0.81991,-8.35591 0.91949,-9.93962 0.60679,-9.52369 -0.0987,-19.341417 -0.97253,-28.828814 C 491.86919,68.354351 486.46766,52.442768 474.00523,40.075467 467.8024,33.919266 460.82899,29.035061 452.35722,26.6781 c -4.93527,-1.373421 -10.02131,-2.105726 -14.96775,-3.437274 -3.98973,-1.07566 -7.71329,-2.306714 -11.85843,-2.732884 -8.26703,-0.850479 -15.8249,-3.974174 -23.89276,-5.781209 -5.93573,-1.329687 -15.48241,-4.483158 -19.33067,2.219247 -3.02929,-3.552656 -6.07626,-6.220405 -9.89661,-8.8704746 -3.65934,-2.5384093 -4.25776,-5.074027 -8.73887,-2.1429459 -8.70629,5.6956025 -16.86071,12.6436605 -24.99279,19.1236755 -7.59509,6.051985 -14.94356,12.389633 -22.90347,17.954965 -8.11812,5.676993 -6.57881,15.310479 -2.76126,23.296977 7.18281,15.032259 18.26135,27.883421 27.9588,40.769013 6.0744,8.0721 12.16834,16.15444 18.21854,24.24237 5.78403,7.73061 10.78631,16.67738 17.54474,23.62265 4.26148,4.37801 9.34752,-1.34737 13.19299,-3.99279 4.77335,-3.2856 9.46292,-6.6931 14.24185,-9.96939 9.95151,-6.82431 20.60009,-13.21592 31.10628,-19.15625 0.76406,2.16621 1.52813,4.33242 2.2922,6.49863 -2.30709,0.17307 -5.4248,-0.34243 -6.59835,2.13829 -1.67798,3.54335 2.43832,4.0086 3.15958,6.03989 0.64494,1.81448 -1.99812,6.60656 -2.77988,8.24146 -1.75801,3.68385 -4.21308,6.85966 -6.91757,9.89216 -10.69883,12.00068 -24.23896,20.58457 -37.97639,28.76647 -14.70065,8.75416 -30.45668,14.09896 -46.55052,19.7406 -8.1842,2.8678 -16.67831,4.20028 -25.12309,6.03709 -8.13766,1.76982 -16.26788,4.09421 -24.5833,4.76231 -17.01241,1.36505 -35.06529,2.3886 -51.87203,-1.28037 -1.83991,-0.40104 -3.78684,-1.27106 -5.65839,-1.43669 -1.50022,-0.13306 -2.61142,0.49595 -4.02789,0.57691 -3.04138,0.174 -4.7845,-2.54586 -7.20049,-0.0186 -1.20892,1.26362 -1.23033,3.38609 -2.91482,1.02727 -2.1433,-3.00087 3.33455,-3.5815 5.36431,-4.43663 6.83475,-2.87897 12.32841,-8.67414 16.67086,-14.53258 4.33965,-5.85379 4.96319,-12.10583 2.32106,-18.95991 -2.64121,-6.85128 -8.6486,-11.49542 -13.15856,-17.05889 -2.18146,-2.6938 -4.18889,-5.54393 -6.5844,-8.05908 -1.27872,-1.34364 -3.3392,-2.6296 -3.41923,-3.98441 -0.0931,-1.57441 0.84969,-2.35696 0.28571,-4.271 -0.14611,-0.49782 -0.77152,-0.78069 -0.9046,-1.32783 -0.21033,-0.87188 0.1154,-1.62 0.006,-2.46955 -0.25313,-1.94847 -1.0172,-3.17208 -2.09863,-4.76882 -0.67379,-0.9975 -1.65936,-2.99436 -2.58629,-3.74155 -1.62493,-1.31014 -3.84082,-0.77604 -5.49274,-2.10386 -2.61422,-2.10015 -3.5337,-6.52561 -5.84639,-9.07519 -3.25543,-3.58801 -3.9497,0.0372 -7.39872,-1.10636 -2.94925,-0.97889 -2.91482,-5.41646 -5.29823,-6.91736 -3.35688,-2.1141 -6.18421,1.7754 -9.16511,2.6417 -3.92179,1.13986 -2.41505,-3.28467 -5.9106,-3.68758 -3.15679,-0.36476 -7.52901,6.03896 -9.10369,8.3131 -1.60352,-1.86938 -3.35781,-5.05448 -6.24377,-3.91369 -3.02929,1.19849 -3.56814,6.77406 -5.78218,8.76347 -0.77151,0.69136 -0.60865,1.20221 -1.55792,1.52044 -1.22567,0.41035 -2.85897,-1.36877 -4.44388,-0.82629 -3.19681,1.09427 -2.80686,5.36063 -2.81338,8.12422 -3.77195,-0.55086 -6.40292,-0.83187 -7.66582,3.23349 -1.23591,3.97883 -1.70496,2.22297 -5.68166,3.51544 -3.42854,1.11381 -3.90783,4.36963 -4.47367,7.55381 -0.34992,1.98011 -0.0261,2.78872 0.50628,4.59389 0.67193,2.27415 0.67193,2.2453 -0.42345,4.41616 -1.90878,3.78714 -2.02325,7.95951 -2.3285,12.12723 -0.32387,4.4478 -1.1019,8.49642 0.16193,12.84 0.78175,2.68822 0.84131,6.34602 3.47414,7.85157 1.0442,0.59646 2.81803,0.26985 3.70681,0.86165 1.69659,1.12963 1.18007,2.8492 2.30989,4.49898 0.8469,1.23477 2.21217,1.35388 3.16051,2.3551 1.03117,1.08961 1.09259,2.41744 1.67984,3.74713 1.73846,3.93788 3.37363,5.84262 -2.29314,6.0678 -3.49555,0.13865 -7.22469,1.18732 -10.70628,0.86537 -4.10885,-0.37872 -5.13071,-2.6752 -6.43828,-6.17202 -6.59092,-17.62185 -10.133,-36.72226 -18.81323,-53.47967 -1.905988,-3.6792 -9.729091,-18.71053 -13.035715,-7.75852 -2.788248,9.23709 0.870164,20.51012 2.272665,29.70441 -4.401077,-3.96673 -6.028796,-11.11113 -9.370785,-15.95439 -2.468102,-3.57778 -10.197208,-12.36451 -14.727646,-7.32956 -3.570931,3.96859 -2.678431,12.38312 -2.019526,17.12775 1.041405,7.50543 3.439708,14.73915 5.153048,22.10035 -2.157263,-2.82128 -3.221004,-6.26693 -4.7175,-9.44367 -1.877135,-3.98347 -4.219599,-7.7641 -6.888723,-11.26465 -2.332226,-3.05949 -4.939927,-5.90311 -7.767263,-8.5113 -2.160985,-1.995 -6.031587,-6.36091 -9.100894,-6.59726 -7.898485,-0.60576 -5.414562,13.88309 -4.211222,18.02568 2.493229,8.58574 5.196788,16.93421 7.132554,25.69302 3.784051,17.11193 8.367537,33.8284 11.154854,51.15807 0.617026,3.84297 1.360621,6.9099 -0.159142,10.60307 -1.339215,3.25396 -2.728686,7.14532 -5.19958,9.64744 -5.593249,5.66583 -10.237227,11.71595 -14.417738,18.54304 -4.478321,7.31189 -9.087865,14.70845 -12.743485,22.47069 -1.680766,3.57127 -3.055347,7.43378 -4.98739,10.8692 -1.744052,3.10043 -3.840822,5.55044 -5.080457,8.98306 -5.923631,16.40196 -10.3098171,32.51732 -12.31817482,49.88514 -1.64912408,14.25901 -0.11260949,33.22637 17.10361282,36.56314 7.908723,1.53254 15.009635,-1.97452 22.141259,-4.86931 7.376387,-2.99343 12.709982,-7.85995 18.726679,-13.03168 7.475967,-6.42605 15.237646,-12.4557 22.792719,-18.77474 7.558796,-6.32276 14.540584,-13.33409 22.05843,-19.72478 7.42571,-6.31345 14.14319,-13.01865 20.56473,-20.35008 6.37034,-7.2728 11.5448,-15.33002 17.71226,-22.70424 -0.0233,9.54788 -1.44066,19.00829 -1.83805,28.54314 -0.36388,8.74207 -0.37226,17.47576 -0.0195,26.21317 0.35272,8.73276 -1.95438,17.04494 -1.97299,25.75909 -0.0195,8.50013 -0.35645,16.95095 -0.54258,25.44178 -0.0838,3.80948 -0.83014,8.08234 0.59283,11.75689 1.06281,2.74405 4.40294,3.60198 7.25261,4.34173 4.40387,1.14265 17.65363,-1.05798 19.62011,3.64663 1.07398,2.56726 -0.007,7.24117 0.0763,10.07827 0.1396,4.67484 0.31084,9.34875 0.47092,14.02266 0.16565,4.82745 0.32666,9.65489 0.50255,14.4814 0.15635,4.2524 0.98371,8.99051 0.47091,13.20104 -0.43834,3.60848 -2.54255,3.13672 -5.8771,3.32189 -5.03299,0.27822 -10.06784,0.50154 -15.10363,0.72114 -7.38662,0.32381 -15.09525,0.17586 -22.17662,1.04774 -2.97438,0.36569 -6.22423,0.2103 -9.36148,0.80675 -3.93482,0.74812 -7.56903,0.93794 -11.55969,1.13614 -3.217279,0.15912 -7.353118,-0.0744 -9.880783,2.30392 -0.876678,0.82536 -1.073047,1.8089 -1.694726,2.7273 -1.164252,1.7205 -0.516515,1.26828 -2.427153,1.65537 -7.462008,1.51113 -14.54896,3.21674 -21.846241,5.7598 -3.652829,1.27293 -7.042281,2.98226 -10.711861,4.17982 -3.216351,1.04961 -5.573705,2.34207 -7.163267,5.49927 -2.840365,5.63884 -2.120967,13.79655 -1.915292,19.87366 0.323869,9.48088 2.429945,18.50675 4.701679,27.67591 2.362938,9.53858 4.215876,19.33304 8.81239,28.09651 1.510457,2.8799 3.140968,6.55353 6.226095,8.05443 3.983212,1.9373 10.108796,0.76301 14.455895,0.77045 2.917609,0.005 10.732335,1.0068 12.912864,-1.43949 2.111661,-2.36905 -0.01303,-9.05006 -0.310839,-11.98951 -1.045128,-10.30252 -2.925985,-20.69995 -2.900858,-31.07225 2.37969,3.51636 6.506223,9.58603 10.635547,4.19842 1.01628,-1.32596 0.61982,-1.94196 2.42436,-2.71055 0.9986,-0.42524 3.10281,-0.68578 4.18982,-0.61227 1.47881,0.0996 2.02604,0.69415 3.3848,0.4029 1.20241,-0.25774 2.55465,-1.33433 3.93389,-1.66187 17.09337,-4.06257 34.0881,-8.44152 51.255,-12.06117 4.53881,-0.95748 3.89386,2.52725 4.19354,6.45117 0.33131,4.33986 -0.30061,8.72346 0.30153,13.01493 0.52396,3.73411 0.93159,7.3733 0.19358,11.12974 -0.87017,4.43012 -0.30991,8.127 0.55653,12.51432 3.33919,16.91931 2.74264,35.26974 3.49555,52.46542 0.3918,8.95608 -0.44951,18.10012 0.39273,27.00782 0.31829,3.36469 2.19635,5.22383 2.95763,8.28426 0.87389,3.5145 -1.50953,7.98928 -2.23451,11.39399 -1.45647,6.83361 -4.01578,16.61504 0.66542,22.56095 2.52767,3.21209 5.84174,3.67735 9.58391,4.76324 4.47832,1.29991 8.89243,2.81477 13.39215,4.04582 16.44006,4.49991 34.20537,5.38017 51.05491,7.85995 4.1256,0.60669 7.95246,0.54993 12.10506,0.2624 2.5593,-0.17772 8.86357,0.66438 10.99198,-0.86722 1.14006,-0.81978 0.56212,-1.84612 1.14192,-2.84827 0.8227,-1.42367 1.82036,-2.00244 3.22193,-2.88828 2.32106,-1.46647 5.00508,-2.32346 5.39688,-5.35131 0.95765,-7.41704 -8.31076,-11.34655 -13.26651,-14.55305 -6.33312,-4.0998 -13.98312,-5.68258 -20.70433,-9.02866 -3.70866,-1.84612 -7.28611,-3.93789 -10.8589,-6.03245 -1.54954,-0.90817 -4.69051,-1.93637 -5.77007,-3.36655 -1.1019,-1.45903 -0.0233,-3.5415 0.43275,-5.62675 1.88365,-8.61552 1.24708,-17.42551 2.22148,-26.13222 0.9744,-8.72066 0.70916,-17.49529 1.03024,-26.26062 0.33131,-9.0268 1.07677,-18.03127 1.64912,-27.04504 0.52675,-8.3252 1.05816,-16.78439 1.14657,-25.11797 0.0828,-7.72782 1.13633,-15.30955 1.38575,-23.08761 0.0847,-2.63984 -0.38902,-7.4282 1.36341,-9.6642 1.53745,-1.96149 6.62721,-1.71491 9.00131,-2.0592 6.3992,-0.92864 12.48942,-1.74283 18.81603,-2.30299 15.0543,-1.33248 31.80706,-2.31323 46.04239,-7.56033 5.87058,-2.16341 13.68252,-5.11962 15.63038,-11.86111 2.24009,-7.74922 -0.68403,-17.27383 -0.78082,-25.19706 -0.1033,-8.45919 -2.55558,-16.71274 -4.39456,-24.90953 -1.98044,-8.82395 -3.22752,-17.79958 -5.3671,-26.59003 -1.96369,-8.06652 -5.1484,-15.20998 -8.15907,-22.86801 -1.22195,-3.10602 -8.17861,-13.80865 -6.02042,-16.44849 1.16239,-1.4218 5.34942,-1.78191 7.04786,-2.43233 3.66121,-1.4004 7.32893,-2.99342 10.70535,-4.98842 4.50717,-2.66403 14.37679,-7.07088 14.83188,-12.98981 0.43276,-5.65745 -5.12606,-11.37445 -7.95153,-15.81667 -4.55278,-7.15928 -10.29493,-13.41784 -14.63086,-20.71855 -8.76307,-14.75404 -15.73182,-30.91407 -22.12078,-46.81356 -3.34199,-8.31868 -4.43365,-16.15165 -4.98367,-25.0305 9.70489,0.0233 19.58288,1.2171 29.22635,-0.13957 10.49502,-1.47764 21.00399,-3.96487 31.40688,-6.01477 18.94445,-3.7341 37.13414,-7.9502 54.68354,-16.35822 16.43447,-7.87298 33.10998,-16.49036 46.71711,-28.98793 7.03577,-6.46233 14.213,-13.04843 20.28833,-20.43847 6.24191,-7.59104 10.93708,-16.21586 15.7523,-24.73833 5.31498,-9.40644 9.54574,-19.29209 12.89052,-29.58158 0.67287,-2.06851 0.67659,-4.70276 1.53745,-6.65681 0.97161,-2.20622 2.73892,-2.26391 4.58442,-3.42611 2.5956,-1.63489 4.32383,-7.10625 -0.18148,-7.93346" />
      <path
         inkscape:connector-curvature="0"
         id="react-path-106"
         d="m 280.89014,20.759539 c 2.21863,1.905889 11.78034,8.619408 14.86883,6.987001 3.81067,-2.015281 -2.22242,-8.085645 -3.84665,-9.582254 -2.06719,-1.904002 -9.4538,-7.664105 -12.282,-7.1294 -5.65259,1.06941 -0.73639,8.009259 1.25982,9.724653" />
      <path
         inkscape:connector-curvature="0"
         id="react-path-107"
         d="m 285.61293,89.662096 c 1.25367,-2.466997 4.58781,-3.37394 6.12915,-5.761267 1.85499,-2.86998 2.70685,-5.381444 2.02295,-8.900829 -4.74743,1.598036 -10.14814,6.434758 -13.32454,10.21724 -2.65488,3.160869 -6.4261,9.766085 0.50203,9.78276 -0.0603,-0.940294 -0.12063,-1.881514 -0.18188,-2.820881 2.0777,0.302006 3.90855,-0.657742 4.85229,-2.517023" />
      <path
         inkscape:connector-curvature="0"
         id="react-path-108"
         d="m 262.99755,48.617699 c 3.0604,0.879684 5.58614,0.755135 8.71325,0.823941 2.26922,0.05052 5.37003,1.297751 7.2089,-0.108 -1.63215,-0.945007 0.43035,-0.997265 0.0263,-1.918755 -0.33921,-0.768199 -0.9838,-0.516487 -1.50718,-1.138363 -1.868,-2.215756 -3.49263,-2.188756 -6.45437,-2.649501 -2.29553,-0.358841 -5.67071,-1.186266 -7.87604,-0.04529 -2.3209,1.201073 -3.21919,4.142351 -0.11087,5.035969" />
      <path
         inkscape:connector-curvature="0"
         id="react-path-109"
         d="m 306.56253,116.57945 c 1.97951,-1.66018 4.13711,-6.46673 4.53733,-8.94646 0.15652,-0.97157 -0.54362,-1.71604 -0.4602,-2.4312 0.16027,-1.36258 2.96083,-3.99707 0.0272,-5.11515 -2.56625,-0.978888 -4.97785,6.62515 -5.63019,8.28441 -0.66921,1.6968 -2.49127,5.00251 -1.93172,6.64437 0.46395,1.36166 2.12105,2.68394 3.4576,1.56403" />
      <path
         inkscape:connector-curvature="0"
         id="react-path-110"
         d="m 330.24116,13.662407 c 1.791,-1.662151 2.92412,-3.547204 2.73875,-5.8329018 -0.14721,-1.8005038 -1.49568,-8.00811039 -3.01317,-7.82556199 -5.03861,0.60817443 -2.77328,16.48892479 0.27442,13.65846379" />
      <path
         inkscape:connector-curvature="0"
         id="react-path-111"
         d="m 223.86434,291.19684 c -0.41451,-1.51787 -1.92207,-10.79828 -4.52822,-10.16599 -1.98023,0.4805 0.0766,8.64719 0.16894,9.72181 0.19295,2.24793 -4.12848,2.17437 -6.1364,1.87079 -3.18499,-0.48143 -2.92927,-2.34757 -3.40563,-5.2427 -0.1791,-1.09417 -0.86872,-6.03888 -3.15083,-4.22768 -1.54172,1.22361 -0.43943,7.32116 -0.31111,8.71238 0.44497,4.81807 0.9675,13.04622 3.83214,17.42197 1.14198,1.74508 2.16948,2.60645 3.36962,0.36876 1.21399,-2.2647 -1.53433,-9.16774 -2.01531,-11.48459 2.26734,0.22163 8.79333,-0.51403 10.15872,1.841 1.24722,2.14923 -0.74778,8.29054 3.2533,8.78874 2.37351,0.29612 1.94331,-2.45373 1.71528,-4.56758 -0.47913,-4.43534 -1.78082,-8.75242 -2.9505,-13.03691" />
      <path
         inkscape:connector-curvature="0"
         id="react-path-112"
         d="m 229.94335,289.05007 c -2.62797,1.18688 0.67166,18.49486 4.51626,17.93672 4.48738,-0.65259 -2.0122,-19.06826 -4.51626,-17.93672" />
      <path
         inkscape:connector-curvature="0"
         id="react-path-113"
         d="m 227.01458,283.31852 c -0.32382,3.89705 4.74023,5.34997 4.97995,1.11488 0.18462,-3.26769 -4.63874,-5.21164 -4.97995,-1.11488" />
      <path
         inkscape:connector-curvature="0"
         id="react-path-114"
         d="m 199.21667,179.9958 c 2.31227,8.61606 23.35577,12.28083 20.5209,0.66138 -1.42026,-5.81833 -7.34944,-0.6496 -11.4899,-1.32638 -2.67884,-0.4376 -10.65898,-5.41063 -9.031,0.665" />
      <path
         inkscape:connector-curvature="0"
         id="react-path-115"
         d="m 193.93174,164.62728 c 0.98947,-4.6107 -9.09548,-9.69913 -12.7548,-8.4298 -5.35347,1.85724 -5.3305,13.7321 -1.24672,16.88923 0.53746,0.4157 2.18475,1.40635 2.9914,0.61661 1.27337,-1.24896 -0.1176,-0.90825 -0.41527,-2.15536 -0.47131,-1.98316 -2.01387,-4.52923 -0.47774,-6.78551 2.90412,-4.26258 10.48644,6.47072 11.90313,-0.13517" />
      <path
         inkscape:connector-curvature="0"
         id="react-path-116"
         d="m 163.18076,187.00542 c -3.6363,-0.20434 -6.61767,5.43932 -1.26808,4.96642 1.0246,-0.0905 3.22575,-0.34835 3.82025,-1.42453 0.98372,-1.7836 -0.95351,-3.45237 -2.55217,-3.54189" />
      <path
         inkscape:connector-curvature="0"
         id="react-path-117"
         d="m 339.58036,52.462441 c -1.24447,-1.80027 -3.85365,-4.697424 -6.09854,-2.891701 -1.99008,1.60125 -1.64285,5.553485 -0.8793,7.517334 2.05379,5.287215 6.90606,9.997363 12.39717,6.95117 -1.90753,-3.821372 -2.98242,-8.052598 -5.41933,-11.576803" />
    </g>
  </g>
</svg>
